<?xml version="1.0" encoding="utf-8"?>
<!-- Generator: Adobe Illustrator 16.0.0, SVG Export Plug-In . SVG Version: 6.00 Build 0)  -->
<!DOCTYPE svg PUBLIC "-//W3C//DTD SVG 1.1//EN" "http://www.w3.org/Graphics/SVG/1.1/DTD/svg11.dtd">
<svg version="1.1" id="Capa_1" xmlns="http://www.w3.org/2000/svg" xmlns:xlink="http://www.w3.org/1999/xlink" x="0px" y="0px"
	 width="200px" height="76.75px" viewBox="0 0 200 76.75" enable-background="new 0 0 200 76.75" xml:space="preserve">
<linearGradient id="SVGID_1_" gradientUnits="userSpaceOnUse" x1="1.1855" y1="17.8955" x2="37.5405" y2="17.8955" gradientTransform="matrix(1 0 0 -1 0 83.5488)">
	<stop  offset="0" style="stop-color:#0D4685;stop-opacity:0.37"/>
	<stop  offset="1" style="stop-color:#0D4685;stop-opacity:0.49"/>
</linearGradient>
<path opacity="0.19" fill="url(#SVGID_1_)" d="M19.363,76.75c6.288-1.637,12.393-4.071,18.177-7.247
	c-6.754-4.09-12.858-9.109-18.177-14.946c-5.32,5.837-11.424,10.856-18.178,14.946C6.969,72.679,13.075,75.113,19.363,76.75z"/>
<linearGradient id="SVGID_2_" gradientUnits="userSpaceOnUse" x1="9.0073" y1="66.0293" x2="9.0073" y2="15.6885" gradientTransform="matrix(1 0 0 -1 0 83.5488)">
	<stop  offset="0" style="stop-color:#858585;stop-opacity:0.28"/>
	<stop  offset="1" style="stop-color:#DADADA;stop-opacity:0.72"/>
</linearGradient>
<path opacity="0.69" fill="url(#SVGID_2_)" d="M18.014,53.038C9.044,42.702,2.935,30.611,0,17.521v50.34
	C6.704,63.819,12.754,58.84,18.014,53.038z"/>
<linearGradient id="SVGID_3_" gradientUnits="userSpaceOnUse" x1="41.5801" y1="17.8955" x2="77.9355" y2="17.8955" gradientTransform="matrix(1 0 0 -1 0 83.5488)">
	<stop  offset="0" style="stop-color:#A3A3A3;stop-opacity:0.49"/>
	<stop  offset="1" style="stop-color:#DADADA;stop-opacity:0.8"/>
</linearGradient>
<path opacity="0.69" fill="url(#SVGID_3_)" d="M59.758,76.75c6.288-1.637,12.393-4.071,18.178-7.247
	c-6.754-4.09-12.858-9.11-18.178-14.946c-5.32,5.836-11.424,10.856-18.178,14.946C47.364,72.679,53.47,75.113,59.758,76.75z"/>
<linearGradient id="SVGID_4_" gradientUnits="userSpaceOnUse" x1="20.7119" y1="42.7324" x2="58.4087" y2="42.7324" gradientTransform="matrix(1 0 0 -1 0 83.5488)">
	<stop  offset="0" style="stop-color:#0D4685;stop-opacity:0.37"/>
	<stop  offset="1" style="stop-color:#0D4685;stop-opacity:0.49"/>
</linearGradient>
<path opacity="0.44" fill="url(#SVGID_4_)" d="M39.561,68.357c7.037-4.129,13.371-9.278,18.848-15.319
	c-9.931-11.444-16.355-25.04-18.848-39.762c-2.493,14.723-8.917,28.318-18.849,39.762C26.188,59.079,32.523,64.229,39.561,68.357z"
	/>
<linearGradient id="SVGID_5_" gradientUnits="userSpaceOnUse" x1="0.1777" y1="57.7363" x2="38.5483" y2="57.7363" gradientTransform="matrix(1 0 0 -1 0 83.5488)">
	<stop  offset="0" style="stop-color:#A3A3A3;stop-opacity:0.49"/>
	<stop  offset="1" style="stop-color:#DADADA;stop-opacity:0.8"/>
</linearGradient>
<path opacity="0.69" fill="url(#SVGID_5_)" d="M0.178,4.743c1.101,17.52,7.729,33.592,19.186,46.883
	C30.82,38.335,37.448,22.206,38.548,4.687C38.434,2.835,38.379,1.01,38.375,0H0.351C0.347,1.01,0.292,2.892,0.178,4.743z"/>
<linearGradient id="SVGID_6_" gradientUnits="userSpaceOnUse" x1="81.9751" y1="17.8955" x2="118.3291" y2="17.8955" gradientTransform="matrix(1 0 0 -1 0 83.5488)">
	<stop  offset="0" style="stop-color:#0D4685;stop-opacity:0.37"/>
	<stop  offset="1" style="stop-color:#0D4685;stop-opacity:0.49"/>
</linearGradient>
<path opacity="0.19" fill="url(#SVGID_6_)" d="M100.152,76.75c6.288-1.637,12.394-4.071,18.177-7.247
	c-6.753-4.089-12.856-9.108-18.177-14.946c-5.319,5.836-11.424,10.856-18.177,14.946C87.759,72.679,93.864,75.113,100.152,76.75z"/>
<linearGradient id="SVGID_7_" gradientUnits="userSpaceOnUse" x1="61.1069" y1="42.7324" x2="98.8032" y2="42.7324" gradientTransform="matrix(1 0 0 -1 0 83.5488)">
	<stop  offset="0" style="stop-color:#A3A3A3;stop-opacity:0.49"/>
	<stop  offset="1" style="stop-color:#DADADA;stop-opacity:0.8"/>
</linearGradient>
<path opacity="0.69" fill="url(#SVGID_7_)" d="M79.955,68.357c7.037-4.129,13.371-9.278,18.848-15.319
	c-9.931-11.444-16.356-25.04-18.848-39.762c-2.493,14.723-8.917,28.318-18.848,39.762C66.583,59.079,72.917,64.229,79.955,68.357z"
	/>
<linearGradient id="SVGID_8_" gradientUnits="userSpaceOnUse" x1="40.5723" y1="57.7363" x2="78.9434" y2="57.7363" gradientTransform="matrix(1 0 0 -1 0 83.5488)">
	<stop  offset="0" style="stop-color:#0D4685;stop-opacity:0.37"/>
	<stop  offset="1" style="stop-color:#0D4685;stop-opacity:0.49"/>
</linearGradient>
<path opacity="0.19" fill="url(#SVGID_8_)" d="M40.572,4.743c1.101,17.52,7.729,33.592,19.186,46.883
	c11.457-13.291,18.084-29.42,19.186-46.939C78.829,2.835,78.773,1.01,78.77,0H40.746C40.742,1.01,40.687,2.892,40.572,4.743z"/>
<linearGradient id="SVGID_9_" gradientUnits="userSpaceOnUse" x1="122.3701" y1="17.896" x2="158.7236" y2="17.896" gradientTransform="matrix(1 0 0 -1 0 83.5488)">
	<stop  offset="0" style="stop-color:#A3A3A3;stop-opacity:0.49"/>
	<stop  offset="1" style="stop-color:#DADADA;stop-opacity:0.8"/>
</linearGradient>
<path opacity="0.69" fill="url(#SVGID_9_)" d="M140.547,76.75c6.288-1.637,12.394-4.072,18.177-7.247
	c-6.752-4.089-12.855-9.109-18.177-14.947c-5.319,5.837-11.424,10.857-18.177,14.947C128.153,72.679,134.259,75.113,140.547,76.75z"
	/>
<linearGradient id="SVGID_10_" gradientUnits="userSpaceOnUse" x1="101.5029" y1="42.7324" x2="139.1973" y2="42.7324" gradientTransform="matrix(1 0 0 -1 0 83.5488)">
	<stop  offset="0" style="stop-color:#A3A3A3;stop-opacity:0.49"/>
	<stop  offset="1" style="stop-color:#DADADA;stop-opacity:0.8"/>
</linearGradient>
<path opacity="0.69" fill="url(#SVGID_10_)" d="M120.35,68.357c7.037-4.129,13.372-9.278,18.848-15.319
	c-9.93-11.445-16.355-25.04-18.848-39.762c-2.492,14.723-8.917,28.317-18.847,39.762C106.979,59.08,113.314,64.229,120.35,68.357z"
	/>
<linearGradient id="SVGID_11_" gradientUnits="userSpaceOnUse" x1="80.9668" y1="57.7363" x2="119.3379" y2="57.7363" gradientTransform="matrix(1 0 0 -1 0 83.5488)">
	<stop  offset="0" style="stop-color:#0D4685;stop-opacity:0.37"/>
	<stop  offset="1" style="stop-color:#0D4685;stop-opacity:0.49"/>
</linearGradient>
<path opacity="0.19" fill="url(#SVGID_11_)" d="M80.967,4.743c1.101,17.52,7.729,33.592,19.186,46.883
	c11.457-13.292,18.084-29.42,19.186-46.939c-0.114-1.851-0.17-3.677-0.174-4.687H81.141C81.136,1.01,81.081,2.892,80.967,4.743z"/>
<linearGradient id="SVGID_12_" gradientUnits="userSpaceOnUse" x1="162.7656" y1="17.896" x2="199.1172" y2="17.896" gradientTransform="matrix(1 0 0 -1 0 83.5488)">
	<stop  offset="0" style="stop-color:#A3A3A3;stop-opacity:0.49"/>
	<stop  offset="1" style="stop-color:#DADADA;stop-opacity:0.8"/>
</linearGradient>
<path opacity="0.69" fill="url(#SVGID_12_)" d="M180.942,76.75c6.284-1.637,12.392-4.071,18.175-7.247
	c-6.752-4.09-12.855-9.11-18.175-14.947c-5.32,5.837-11.425,10.857-18.177,14.947C168.549,72.678,174.654,75.113,180.942,76.75z"/>
<linearGradient id="SVGID_13_" gradientUnits="userSpaceOnUse" x1="141.8975" y1="42.7324" x2="179.5918" y2="42.7324" gradientTransform="matrix(1 0 0 -1 0 83.5488)">
	<stop  offset="0" style="stop-color:#A3A3A3;stop-opacity:0.49"/>
	<stop  offset="1" style="stop-color:#DADADA;stop-opacity:0.8"/>
</linearGradient>
<path opacity="0.69" fill="url(#SVGID_13_)" d="M160.744,68.356c7.037-4.128,13.372-9.277,18.848-15.318
	c-9.93-11.445-16.355-25.04-18.848-39.762c-2.491,14.723-8.917,28.317-18.847,39.762C147.374,59.08,153.709,64.229,160.744,68.356z"
	/>
<linearGradient id="SVGID_14_" gradientUnits="userSpaceOnUse" x1="149.9717" y1="89.085" x2="122.8643" y2="42.1335" gradientTransform="matrix(1 0 0 -1 0 83.5488)">
	<stop  offset="0" style="stop-color:#A3A3A3;stop-opacity:0.49"/>
	<stop  offset="1" style="stop-color:#DADADA;stop-opacity:0.8"/>
</linearGradient>
<path opacity="0.69" fill="url(#SVGID_14_)" d="M121.361,4.743c1.102,17.52,7.729,33.591,19.186,46.882
	c11.457-13.291,18.084-29.419,19.186-46.938C159.618,2.835,159.563,1.01,159.56,0h-38.024C121.531,1.01,121.477,2.892,121.361,4.743
	z"/>
<linearGradient id="SVGID_15_" gradientUnits="userSpaceOnUse" x1="191.168" y1="64.5615" x2="191.168" y2="15.9004" gradientTransform="matrix(1 0 0 -1 0 83.5488)">
	<stop  offset="0" style="stop-color:#858585;stop-opacity:0.28"/>
	<stop  offset="1" style="stop-color:#DADADA;stop-opacity:0.72"/>
</linearGradient>
<path opacity="0.69" fill="url(#SVGID_15_)" d="M200,67.648V18.988c-3,12.538-9.058,24.13-17.662,34.05
	C187.505,58.738,193,63.645,200,67.648z"/>
<linearGradient id="SVGID_16_" gradientUnits="userSpaceOnUse" x1="161.7568" y1="57.7939" x2="200" y2="57.7939" gradientTransform="matrix(1 0 0 -1 0 83.5488)">
	<stop  offset="0" style="stop-color:#0D4685;stop-opacity:0.37"/>
	<stop  offset="1" style="stop-color:#0D4685;stop-opacity:0.49"/>
</linearGradient>
<path opacity="0.44" fill="url(#SVGID_16_)" d="M161.757,4.687c1.102,17.52,7.751,33.534,19.208,46.823
	C191.9,38.822,198,23.346,200,6.767V0h-38.07C161.926,1.01,161.871,2.835,161.757,4.687z"/>
</svg>
